<?xml version="1.0" standalone="no"?>
<!DOCTYPE svg PUBLIC "-//W3C//DTD SVG 20010904//EN"
 "http://www.w3.org/TR/2001/REC-SVG-20010904/DTD/svg10.dtd">
<svg version="1.0" xmlns="http://www.w3.org/2000/svg"
 width="654.000000pt" height="654.000000pt" viewBox="0 0 654.000000 654.000000"
 preserveAspectRatio="xMidYMid meet">
<metadata>
Created by potrace 1.11, written by Peter Selinger 2001-2013
</metadata>
<g transform="translate(0.000000,654.000000) scale(0.100000,-0.100000)"
fill="#000000" stroke="none">
<path d="M2165 4795 c-511 -954 -931 -1739 -933 -1745 -3 -7 252 -10 803 -10
670 0 806 -2 802 -13 -12 -31 -776 -2951 -773 -2954 1 -1 545 674 1208 1500
664 826 1431 1781 1705 2122 l499 620 -932 5 -932 5 551 1025 c304 564 571
1060 594 1103 l42 77 -852 0 -852 -1 -930 -1734z"/>
</g>
</svg>
